<mxfile host="www.draw.io" modified="2020-03-26T10:56:04.083Z" agent="Mozilla/5.0 (Macintosh; Intel Mac OS X 10_14_5) AppleWebKit/537.36 (KHTML, like Gecko) Chrome/80.0.3987.149 Safari/537.36" etag="DH40ouTlXl5k_8otKNc3" version="12.9.3" type="github">
  <diagram id="c6vPCQbDTAW3_hjepVWK" name="Page-1">
    <mxGraphModel dx="881" dy="542" grid="0" gridSize="10" guides="1" tooltips="1" connect="1" arrows="1" fold="1" page="1" pageScale="1" pageWidth="827" pageHeight="1169" math="0" shadow="0">
      <root>
        <mxCell id="0" />
        <mxCell id="1" parent="0" />
        <mxCell id="nqajYnND2lpwk76EezyJ-1" value="Caller" style="rounded=1;whiteSpace=wrap;html=1;fillColor=#9999FF;fontSize=16;" parent="1" vertex="1">
          <mxGeometry x="170" y="330" width="120" height="60" as="geometry" />
        </mxCell>
        <mxCell id="nqajYnND2lpwk76EezyJ-2" value="Service" style="rounded=1;whiteSpace=wrap;html=1;fillColor=#9999FF;fontSize=16;" parent="1" vertex="1">
          <mxGeometry x="620" y="330" width="120" height="60" as="geometry" />
        </mxCell>
        <mxCell id="nqajYnND2lpwk76EezyJ-3" value="Control Center" style="rounded=1;whiteSpace=wrap;html=1;fillColor=#33FFFF;fontSize=16;" parent="1" vertex="1">
          <mxGeometry x="290" y="180" width="120" height="60" as="geometry" />
        </mxCell>
        <mxCell id="nqajYnND2lpwk76EezyJ-4" value="Monitor" style="rounded=1;whiteSpace=wrap;html=1;fillColor=#33FFFF;fontSize=16;" parent="1" vertex="1">
          <mxGeometry x="500" y="180" width="120" height="60" as="geometry" />
        </mxCell>
        <mxCell id="nqajYnND2lpwk76EezyJ-5" value="Srvmgr" style="rounded=1;whiteSpace=wrap;html=1;fillColor=#00FFFF;fontSize=16;" parent="1" vertex="1">
          <mxGeometry x="400" y="40" width="120" height="60" as="geometry" />
        </mxCell>
        <mxCell id="nqajYnND2lpwk76EezyJ-6" value="" style="endArrow=classic;html=1;fontSize=16;entryX=0.5;entryY=1;entryDx=0;entryDy=0;exitX=0.5;exitY=0;exitDx=0;exitDy=0;dashed=1;strokeWidth=2;strokeColor=#6666FF;" parent="1" source="nqajYnND2lpwk76EezyJ-2" target="nqajYnND2lpwk76EezyJ-3" edge="1">
          <mxGeometry width="50" height="50" relative="1" as="geometry">
            <mxPoint x="420" y="420" as="sourcePoint" />
            <mxPoint x="470" y="370" as="targetPoint" />
          </mxGeometry>
        </mxCell>
        <mxCell id="nqajYnND2lpwk76EezyJ-7" value="1.registry" style="text;html=1;align=center;verticalAlign=middle;resizable=0;points=[];labelBackgroundColor=#ffffff;fontSize=16;" parent="nqajYnND2lpwk76EezyJ-6" vertex="1" connectable="0">
          <mxGeometry x="0.066" y="-2" relative="1" as="geometry">
            <mxPoint x="65.06" y="19.82" as="offset" />
          </mxGeometry>
        </mxCell>
        <mxCell id="nqajYnND2lpwk76EezyJ-8" value="" style="endArrow=none;html=1;fontSize=16;entryX=0.5;entryY=1;entryDx=0;entryDy=0;exitX=0.5;exitY=0;exitDx=0;exitDy=0;dashed=1;strokeWidth=2;strokeColor=#6666FF;startArrow=classic;startFill=1;endFill=0;" parent="1" source="nqajYnND2lpwk76EezyJ-1" target="nqajYnND2lpwk76EezyJ-3" edge="1">
          <mxGeometry width="50" height="50" relative="1" as="geometry">
            <mxPoint x="630" y="370" as="sourcePoint" />
            <mxPoint x="360" y="250" as="targetPoint" />
          </mxGeometry>
        </mxCell>
        <mxCell id="nqajYnND2lpwk76EezyJ-9" value="2.notify" style="text;html=1;align=center;verticalAlign=middle;resizable=0;points=[];labelBackgroundColor=#ffffff;fontSize=16;" parent="nqajYnND2lpwk76EezyJ-8" vertex="1" connectable="0">
          <mxGeometry x="-0.6533" y="3" relative="1" as="geometry">
            <mxPoint x="41" y="-32" as="offset" />
          </mxGeometry>
        </mxCell>
        <mxCell id="nqajYnND2lpwk76EezyJ-10" value="" style="endArrow=classic;html=1;fontSize=16;entryX=0;entryY=0.5;entryDx=0;entryDy=0;exitX=1;exitY=0.5;exitDx=0;exitDy=0;strokeWidth=2;strokeColor=#33FFFF;" parent="1" source="nqajYnND2lpwk76EezyJ-1" target="nqajYnND2lpwk76EezyJ-2" edge="1">
          <mxGeometry width="50" height="50" relative="1" as="geometry">
            <mxPoint x="690" y="340" as="sourcePoint" />
            <mxPoint x="360" y="250" as="targetPoint" />
          </mxGeometry>
        </mxCell>
        <mxCell id="nqajYnND2lpwk76EezyJ-11" value="3.invoke" style="text;html=1;align=center;verticalAlign=middle;resizable=0;points=[];labelBackgroundColor=#ffffff;fontSize=16;" parent="nqajYnND2lpwk76EezyJ-10" vertex="1" connectable="0">
          <mxGeometry x="0.066" y="-2" relative="1" as="geometry">
            <mxPoint x="-16" y="-15.000000000000004" as="offset" />
          </mxGeometry>
        </mxCell>
        <mxCell id="nqajYnND2lpwk76EezyJ-12" value="" style="endArrow=classic;html=1;fontSize=16;entryX=0.5;entryY=1;entryDx=0;entryDy=0;exitX=0.5;exitY=0;exitDx=0;exitDy=0;dashed=1;strokeWidth=2;strokeColor=#6666FF;" parent="1" source="nqajYnND2lpwk76EezyJ-1" target="nqajYnND2lpwk76EezyJ-4" edge="1">
          <mxGeometry width="50" height="50" relative="1" as="geometry">
            <mxPoint x="690" y="340" as="sourcePoint" />
            <mxPoint x="360" y="250" as="targetPoint" />
          </mxGeometry>
        </mxCell>
        <mxCell id="nqajYnND2lpwk76EezyJ-13" value="4.count" style="text;html=1;align=center;verticalAlign=middle;resizable=0;points=[];labelBackgroundColor=#ffffff;fontSize=16;" parent="nqajYnND2lpwk76EezyJ-12" vertex="1" connectable="0">
          <mxGeometry x="0.066" y="-2" relative="1" as="geometry">
            <mxPoint x="-26.11" y="5.960000000000001" as="offset" />
          </mxGeometry>
        </mxCell>
        <mxCell id="nqajYnND2lpwk76EezyJ-14" value="" style="endArrow=classic;html=1;fontSize=16;entryX=0.5;entryY=1;entryDx=0;entryDy=0;exitX=0.5;exitY=0;exitDx=0;exitDy=0;dashed=1;strokeWidth=2;strokeColor=#6666FF;" parent="1" source="nqajYnND2lpwk76EezyJ-2" target="nqajYnND2lpwk76EezyJ-4" edge="1">
          <mxGeometry width="50" height="50" relative="1" as="geometry">
            <mxPoint x="240" y="340" as="sourcePoint" />
            <mxPoint x="570" y="250" as="targetPoint" />
          </mxGeometry>
        </mxCell>
        <mxCell id="nqajYnND2lpwk76EezyJ-15" value="4.count" style="text;html=1;align=center;verticalAlign=middle;resizable=0;points=[];labelBackgroundColor=#ffffff;fontSize=16;" parent="nqajYnND2lpwk76EezyJ-14" vertex="1" connectable="0">
          <mxGeometry x="0.066" y="-2" relative="1" as="geometry">
            <mxPoint x="-7.200000000000003" y="-10.400000000000002" as="offset" />
          </mxGeometry>
        </mxCell>
        <mxCell id="nqajYnND2lpwk76EezyJ-16" value="" style="endArrow=classic;html=1;fontSize=16;entryX=0.5;entryY=0;entryDx=0;entryDy=0;exitX=0.5;exitY=1;exitDx=0;exitDy=0;dashed=1;strokeWidth=2;strokeColor=#6666FF;" parent="1" source="nqajYnND2lpwk76EezyJ-5" target="nqajYnND2lpwk76EezyJ-3" edge="1">
          <mxGeometry width="50" height="50" relative="1" as="geometry">
            <mxPoint x="690" y="340" as="sourcePoint" />
            <mxPoint x="360" y="250" as="targetPoint" />
          </mxGeometry>
        </mxCell>
        <mxCell id="nqajYnND2lpwk76EezyJ-17" value="6.op" style="text;html=1;align=center;verticalAlign=middle;resizable=0;points=[];labelBackgroundColor=#ffffff;fontSize=16;" parent="nqajYnND2lpwk76EezyJ-16" vertex="1" connectable="0">
          <mxGeometry x="0.066" y="-2" relative="1" as="geometry">
            <mxPoint x="-10.590000000000003" y="9.27" as="offset" />
          </mxGeometry>
        </mxCell>
        <mxCell id="nqajYnND2lpwk76EezyJ-18" value="" style="endArrow=none;html=1;fontSize=16;entryX=0.5;entryY=0;entryDx=0;entryDy=0;exitX=0.5;exitY=1;exitDx=0;exitDy=0;dashed=1;strokeWidth=2;strokeColor=#6666FF;startArrow=classic;startFill=1;endFill=0;" parent="1" source="nqajYnND2lpwk76EezyJ-5" target="nqajYnND2lpwk76EezyJ-4" edge="1">
          <mxGeometry width="50" height="50" relative="1" as="geometry">
            <mxPoint x="470" y="110" as="sourcePoint" />
            <mxPoint x="360" y="190" as="targetPoint" />
          </mxGeometry>
        </mxCell>
        <mxCell id="nqajYnND2lpwk76EezyJ-19" value="5.fetch" style="text;html=1;align=center;verticalAlign=middle;resizable=0;points=[];labelBackgroundColor=#ffffff;fontSize=16;" parent="nqajYnND2lpwk76EezyJ-18" vertex="1" connectable="0">
          <mxGeometry x="0.066" y="-2" relative="1" as="geometry">
            <mxPoint x="8.149999999999995" y="5.959999999999999" as="offset" />
          </mxGeometry>
        </mxCell>
        <mxCell id="kpHwbxMFUV27yNFj0fHA-5" value="" style="endArrow=none;html=1;fontSize=16;strokeWidth=2;strokeColor=#33FFFF;endFill=0;" edge="1" parent="1">
          <mxGeometry width="50" height="50" relative="1" as="geometry">
            <mxPoint x="670" y="90" as="sourcePoint" />
            <mxPoint x="740" y="90" as="targetPoint" />
          </mxGeometry>
        </mxCell>
        <mxCell id="kpHwbxMFUV27yNFj0fHA-6" value="sync" style="text;html=1;align=center;verticalAlign=middle;resizable=0;points=[];labelBackgroundColor=#ffffff;fontSize=16;" vertex="1" connectable="0" parent="kpHwbxMFUV27yNFj0fHA-5">
          <mxGeometry x="0.066" y="-2" relative="1" as="geometry">
            <mxPoint x="63" y="-2.0000000000000036" as="offset" />
          </mxGeometry>
        </mxCell>
        <mxCell id="kpHwbxMFUV27yNFj0fHA-7" value="" style="endArrow=none;html=1;fontSize=16;strokeWidth=2;strokeColor=#0000FF;endFill=0;dashed=1;" edge="1" parent="1">
          <mxGeometry width="50" height="50" relative="1" as="geometry">
            <mxPoint x="670" y="69.5" as="sourcePoint" />
            <mxPoint x="740" y="69.5" as="targetPoint" />
          </mxGeometry>
        </mxCell>
        <mxCell id="kpHwbxMFUV27yNFj0fHA-8" value="async" style="text;html=1;align=center;verticalAlign=middle;resizable=0;points=[];labelBackgroundColor=#ffffff;fontSize=16;" vertex="1" connectable="0" parent="kpHwbxMFUV27yNFj0fHA-7">
          <mxGeometry x="0.066" y="-2" relative="1" as="geometry">
            <mxPoint x="63" y="-2.0000000000000036" as="offset" />
          </mxGeometry>
        </mxCell>
      </root>
    </mxGraphModel>
  </diagram>
</mxfile>
